HIERARCHY
ROOT Joint1
{
	OFFSET 0.000000 0.000000 0.000000
	CHANNELS 6 Xposition Yposition Zposition Xrotation Yrotation Zrotation
	JOINT Joint2
	{
		OFFSET -0.000000 0.000000 1.456275
		CHANNELS 6 Xposition Yposition Zposition Xrotation Yrotation Zrotation
		JOINT Joint3
		{
			OFFSET -0.000000 0.000002 1.471446
			CHANNELS 6 Xposition Yposition Zposition Xrotation Yrotation Zrotation
			JOINT Joint4
			{
				OFFSET 0.625745 0.000000 0.917755
				CHANNELS 6 Xposition Yposition Zposition Xrotation Yrotation Zrotation
				JOINT Joint5
				{
					OFFSET -0.629534 0.000001 0.940221
					CHANNELS 6 Xposition Yposition Zposition Xrotation Yrotation Zrotation
					JOINT Joint6
					{
						OFFSET -0.000001 0.113772 1.960660
						CHANNELS 6 Xposition Yposition Zposition Xrotation Yrotation Zrotation
						JOINT Joint7
						{
							OFFSET -0.669733 -0.113771 0.388340
							CHANNELS 6 Xposition Yposition Zposition Xrotation Yrotation Zrotation
							End Site
							{
								OFFSET 0.005509 0.005509 0.438980
							}
						}
					}
				}
			}
		}
	}
}
MOTION
Frames: 17
Frame Time: 0.041667
0.000000 0.000000 0.000000 -0.000000 1.019410 -68.859877 -0.000000 0.000000 1.456275 0.000001 -54.042209 -0.000002 -0.000000 0.000002 1.471446 -0.000003 -1.133456 57.015786 0.625745 0.000001 0.917755 -0.000013 75.937497 0.000001 -0.629533 0.000001 0.940220 -0.000001 1.709736 -20.678118 -0.000000 0.113773 1.960660 -88.303875 143.693329 -0.000000 -0.669733 -0.113771 0.388340 0.307257 2.452343 39.497232 
0.000000 0.000000 0.000000 -0.000000 1.019410 -70.727948 -0.000000 0.000000 1.456275 0.000000 -54.288116 0.000003 -0.000001 0.000002 1.471446 -0.000005 -1.133458 58.563722 0.625745 0.000000 0.917755 -0.000005 74.334390 0.000007 -0.629534 0.000001 0.940221 0.000001 1.709734 -21.238690 -0.000001 0.113771 1.960661 -88.303882 145.150700 0.000001 -0.669733 -0.113771 0.388339 0.301817 2.406731 36.908860 
0.000000 0.000000 0.000000 -0.000000 1.019410 -72.522723 -0.000000 0.000000 1.456275 -0.000001 -54.524372 0.000002 -0.000000 0.000002 1.471446 -0.000004 -1.133450 60.050921 0.625745 0.000001 0.917755 -0.000002 72.794175 0.000003 -0.629534 0.000001 0.940220 -0.000004 1.709738 -21.777268 -0.000001 0.113772 1.960661 -88.303875 146.550888 0.000003 -0.669732 -0.113772 0.388340 0.294652 2.363180 34.422115 
0.000000 0.000000 0.000000 -0.000000 1.019410 -74.263868 -0.000000 0.000000 1.456275 0.000004 -54.753569 -0.000001 -0.000000 0.000002 1.471446 -0.000001 -1.133452 61.493675 0.625745 0.000001 0.917755 -0.000005 71.299990 0.000006 -0.629534 0.000001 0.940221 -0.000000 1.709735 -22.299755 -0.000001 0.113772 1.960660 -88.303875 147.909249 0.000000 -0.669733 -0.113771 0.388340 0.285902 2.321262 32.009750 
0.000000 0.000000 0.000000 -0.000000 1.019410 -76.024677 -0.000000 -0.000000 1.456275 -0.000000 -54.985355 -0.000000 -0.000000 0.000002 1.471446 -0.000002 -1.133457 62.952733 0.625745 0.000000 0.917755 0.000006 69.788933 0.000001 -0.629533 0.000001 0.940221 -0.000000 1.709737 -22.828138 -0.000001 0.113772 1.960661 -88.303875 149.282937 0.000001 -0.669733 -0.113771 0.388340 0.275260 2.279287 29.570198 
0.000000 0.000000 0.000000 -0.000000 1.019410 -77.799789 -0.000000 0.000000 1.456275 -0.000000 -55.219023 -0.000001 -0.000000 0.000002 1.471446 -0.000003 -1.133455 64.423642 0.625745 0.000000 0.917755 0.000005 68.265589 0.000006 -0.629534 0.000001 0.940221 -0.000001 1.709738 -23.360823 -0.000001 0.113772 1.960660 -88.303875 150.667785 0.000002 -0.669733 -0.113771 0.388340 0.262736 2.237466 27.110897 
0.000000 0.000000 0.000000 -0.000000 1.019410 -79.569545 -0.000000 -0.000000 1.456275 0.000001 -55.451987 0.000001 -0.000000 0.000002 1.471446 -0.000001 -1.133451 65.890097 0.625744 0.000000 0.917755 -0.000002 66.746849 0.000001 -0.629534 0.000001 0.940221 0.000001 1.709735 -23.891886 -0.000001 0.113772 1.960660 -88.303875 152.048453 0.000001 -0.669733 -0.113772 0.388340 0.248475 2.196349 24.659083 
0.000000 0.000000 0.000000 -0.000000 1.019410 -81.335709 -0.000000 -0.000000 1.456275 0.000000 -55.684480 -0.000001 -0.000000 0.000002 1.471446 -0.000003 -1.133453 67.353588 0.625745 0.000000 0.917755 -0.000004 65.231189 0.000003 -0.629534 0.000001 0.940221 0.000001 1.709733 -24.421878 -0.000001 0.113772 1.960660 -88.303875 153.426321 0.000001 -0.669733 -0.113771 0.388340 0.232502 2.155959 22.212282 
0.000000 0.000000 0.000000 -0.000000 1.019410 -83.103663 -0.000000 -0.000000 1.456275 -0.000000 -55.917201 -0.000000 -0.000000 0.000002 1.471446 -0.000003 -1.133455 68.818582 0.625745 0.000000 0.917755 -0.000005 63.713985 0.000001 -0.629534 0.000001 0.940221 -0.000001 1.709737 -24.952418 -0.000001 0.113772 1.960661 -88.303882 154.805582 0.000002 -0.669733 -0.113771 0.388340 0.214798 2.116244 19.763055 
0.000000 0.000000 0.000000 -0.000000 1.019410 -84.871637 -0.000000 0.000000 1.456275 -0.000000 -56.149937 0.000001 -0.000000 0.000002 1.471446 -0.000004 -1.133454 70.283548 0.625745 0.000000 0.917756 -0.000001 62.196789 0.000001 -0.629534 0.000001 0.940221 0.000002 1.709735 -25.482941 -0.000001 0.113772 1.960661 -88.303882 156.184857 0.000002 -0.669733 -0.113771 0.388340 0.195410 2.077323 17.313881 
0.000000 0.000000 0.000000 -0.000000 1.019410 -86.637808 -0.000000 0.000000 1.456275 0.000000 -56.382423 -0.000000 -0.000000 0.000002 1.471446 -0.000004 -1.133455 71.747053 0.625745 0.000000 0.917755 0.000002 60.681129 -0.000000 -0.629534 0.000001 0.940221 -0.000000 1.709736 -26.012938 -0.000000 0.113772 1.960661 -88.303875 157.562738 0.000004 -0.669734 -0.113771 0.388340 0.174398 2.039304 14.867227 
0.000000 0.000000 0.000000 -0.000000 1.019410 -88.407558 -0.000000 -0.000000 1.456275 0.000000 -56.615383 -0.000000 -0.000000 0.000002 1.471446 -0.000004 -1.133456 73.213522 0.625745 0.000001 0.917755 -0.000008 59.162395 0.000002 -0.629534 0.000001 0.940221 -0.000003 1.709735 -26.544005 -0.000001 0.113772 1.960660 -88.303882 158.943392 0.000003 -0.669733 -0.113771 0.388340 0.151737 2.002141 12.415664 
0.000000 0.000000 0.000000 -0.000000 1.019410 -90.182662 -0.000000 -0.000000 1.456275 -0.000000 -56.849058 0.000000 -0.000000 0.000002 1.471446 -0.000004 -1.133454 74.684417 0.625744 0.000000 0.917755 0.000002 57.639051 0.000002 -0.629534 0.000001 0.940221 0.000002 1.709736 -27.076685 -0.000001 0.113772 1.960660 -88.303882 160.328241 0.000001 -0.669733 -0.113771 0.388340 0.127434 1.965869 9.956705 
0.000000 0.000000 0.000000 -0.000000 1.019410 -91.943478 -0.000000 0.000000 1.456275 0.000000 -57.080840 -0.000000 -0.000000 0.000002 1.471446 -0.000004 -1.133456 76.143475 0.625744 0.000000 0.917755 -0.000003 56.127991 0.000002 -0.629534 0.000001 0.940221 -0.000000 1.709737 -27.605062 -0.000001 0.113772 1.960661 -88.303882 161.701928 0.000002 -0.669733 -0.113771 0.388340 0.101807 1.930956 7.517604 
0.000000 0.000000 0.000000 -0.000000 1.019410 -93.684616 -0.000000 -0.000000 1.456275 -0.000000 -57.310041 0.000000 -0.000000 0.000002 1.471446 -0.000004 -1.133455 77.586229 0.625745 0.000000 0.917755 -0.000003 54.633816 0.000001 -0.629534 0.000001 0.940221 -0.000000 1.709734 -28.127545 -0.000001 0.113772 1.960661 -88.303882 163.060262 -0.000001 -0.669734 -0.113771 0.388341 0.075025 1.897533 5.105778 
0.000000 0.000000 0.000000 -0.000000 1.019410 -95.479406 -0.000000 0.000000 1.456275 0.000001 -57.546304 0.000000 -0.000000 0.000002 1.471446 -0.000004 -1.133456 79.073428 0.625745 0.000001 0.917755 0.000000 53.093598 0.000001 -0.629534 0.000001 0.940221 0.000003 1.709735 -28.666123 -0.000001 0.113772 1.960661 -88.303882 164.460464 0.000003 -0.669733 -0.113770 0.388340 0.045977 1.864297 2.619677 
0.000000 0.000000 0.000000 -0.000000 1.019410 -97.347503 -0.000000 0.000000 1.456275 0.000001 -57.792198 0.000000 -0.000001 0.000002 1.471446 -0.000004 -1.133455 80.621381 0.625744 0.000000 0.917755 0.000000 51.490464 0.000001 -0.629534 0.000001 0.940221 -0.000000 1.709737 -29.226704 -0.000001 0.113772 1.960661 -88.303882 165.917835 0.000003 -0.669733 -0.113771 0.388340 0.014237 1.831072 0.032065 
